PathFileType	4	(X/Y/Z)	7_coords_data.trc
DataRate	CameraRate	NumFrames	NumMarkers	Units	OrigDataRate	OrigDataStartFrame	OrigNumFrames
30.0	30.0	7	21	m	30.0	11	73
Frame#	Time	THUMB_TIP	THUMB_IP	THUMB_MCP	THUMB_CMC	INDEX_TIP	INDEX_DIP	INDEX_PIP	INDEX_MCP	MIDDLE_TIP	MIDDLE_DIP	MIDDLE_PIP	MIDDLE_MCP	RING_TIP	RING_DIP	RING_PIP	RING_MCP	PINKY_TIP	PINKY_DIP	PINKY_PIP	PINKY_MCP	WRIST
X1	Y1	Z1	X2	Y2	Z2	X3	Y3	Z3	X4	Y4	Z4	X5	Y5	Z5	X6	Y6	Z6	X7	Y7	Z7	X8	Y8	Z8	X9	Y9	Z9	X10	Y10	Z10	X11	Y11	Z11	X12	Y12	Z12	X13	Y13	Z13	X14	Y14	Z14	X15	Y15	Z15	X16	Y16	Z16	X17	Y17	Z17	X18	Y18	Z18	X19	Y19	Z19	X20	Y20	Z20	X21	Y21	Z21
10	0.3333333333333333	0.013244500160217285	-0.034332401275634764	0.99802099609375	-0.004099959850311279	-0.02810260009765625	1.0174500122070314	-0.023161199569702147	-0.02982309913635254	1.040780029296875	-0.041133399963378905	-0.00999487018585205	1.05747998046875	0.013477999687194825	0.001583359956741333	0.9474210205078125	-0.004894219875335694	-0.00654984998703003	0.9561790161132813	-0.02283259963989258	-0.014181900024414062	0.9690419921875	-0.042133399963378906	-0.02141189956665039	1.000510009765625	0.014340200424194337	0.03290639877319336	0.9433690185546875	-0.005289649963378907	0.024659999847412108	0.9530609741210937	-0.027243900299072265	0.014436200141906738	0.9668319702148438	-0.051062698364257815	0.001220270037651062	0.9962440185546875	0.013237299919128418	0.04802460098266602	0.9642069702148437	-0.006797530174255371	0.04231990051269531	0.9714409790039062	-0.0295408992767334	0.03471670150756836	0.9816849975585937	-0.05485269927978516	0.02126099967956543	1.0035800170898437	0.001552049994468689	0.06449079895019531	1.0006699829101562	-0.015424200057983398	0.058164600372314454	1.0035900268554687	-0.03137269973754883	0.050964000701904294	1.0076400146484374	-0.05202339935302734	0.03755810165405273	1.0163300170898437	-0.07096119689941406	0.0058463897705078125	1.07077001953125
11	0.36666666666666664	0.012244199752807617	-0.0351245002746582	0.99702001953125	-0.004817210197448731	-0.028838499069213867	1.0165800170898438	-0.023699100494384766	-0.030299699783325196	1.0400799560546874	-0.04080739974975586	-0.010404399871826172	1.0568900146484375	0.011853300094604492	0.0008296939730644221	0.9458179931640625	-0.006457369804382324	-0.007067830085754394	0.9549429931640625	-0.024170700073242186	-0.014472000122070313	0.9681389770507812	-0.04286040115356445	-0.021458799362182618	0.9997540283203125	0.012739999771118164	0.03243119812011719	0.9414010009765625	-0.006687809944152832	0.02437849998474121	0.9516699829101563	-0.028351999282836913	0.014359000205993653	0.9659400024414062	-0.051689098358154294	0.001305909991264343	0.9958790283203125	0.012576499938964843	0.04754520034790039	0.9628519897460938	-0.007420579910278321	0.041989498138427735	0.9704400024414063	-0.030056800842285156	0.034606800079345704	0.9809660034179688	-0.05495009994506836	0.02129360008239746	1.00325	0.0019318900108337403	0.06382640075683593	1.000530029296875	-0.01495419979095459	0.05772790145874023	1.0035399780273437	-0.030979299545288087	0.05073860168457031	1.0075999755859375	-0.05175830078125	0.03752890014648438	1.0162100219726562	-0.07066010284423828	0.005677700042724609	1.07031005859375
12	0.4	0.01127359962463379	-0.03555730056762695	0.996	-0.005632180213928223	-0.0293533992767334	1.01575	-0.024317399978637695	-0.030648500442504882	1.039530029296875	-0.04135860061645508	-0.010583200454711915	1.056530029296875	0.01152560043334961	0.000771037995815277	0.9456099853515625	-0.006914050102233887	-0.007087399959564209	0.9546290283203125	-0.024766500473022462	-0.014475099563598633	0.9676950073242188	-0.04339590072631836	-0.021533199310302734	0.9993930053710938	0.01261929988861084	0.031999000549316405	0.941073974609375	-0.006906949996948243	0.024062200546264647	0.9513319702148437	-0.02868470001220703	0.01420829963684082	0.9655590209960937	-0.05216469955444336	0.001268049955368042	0.9954249877929687	0.012323699951171874	0.04688629913330078	0.9622579956054688	-0.007733970165252685	0.0415718994140625	0.9699190063476563	-0.030410499572753907	0.03438330078125	0.9803790283203125	-0.05539339828491211	0.021247400283813476	1.0029299926757813	0.0018593499660491941	0.06334289932250976	0.9995360107421875	-0.015239999771118165	0.05736800003051758	1.002760009765625	-0.03120210075378418	0.05056079864501953	1.0066699829101562	-0.05208269882202148	0.03747719955444336	1.01602001953125	-0.07084729766845703	0.005692840099334717	1.0701199951171876
13	0.43333333333333335	0.010790900230407715	-0.03580530166625977	0.9953610229492188	-0.006066810131072998	-0.02964550018310547	1.0151400146484375	-0.024620399475097657	-0.03090800094604492	1.03893994140625	-0.04169609832763672	-0.0108125	1.0560699462890626	0.011683799743652344	0.0008889250159263611	0.9455900268554688	-0.006825550079345703	-0.006852159976959229	0.9544749755859375	-0.02479590034484863	-0.014250800132751465	0.9673510131835937	-0.04373400115966797	-0.02150849914550781	0.9989340209960937	0.011979100227355956	0.03187969970703125	0.940094970703125	-0.007505390167236328	0.02401580047607422	0.9505	-0.02910309982299805	0.014227100372314453	0.9650280151367188	-0.05222689819335938	0.0014199099540710448	0.9950650024414063	0.01224489974975586	0.04662409973144531	0.961719970703125	-0.0077974400520324704	0.0414197998046875	0.969406005859375	-0.03046730041503906	0.03439849853515625	0.9801220092773437	-0.05524340057373047	0.02137249946594238	1.0026500244140626	0.002183010101318359	0.06306760025024415	0.999760986328125	-0.014688400268554688	0.05725619888305664	1.0027999877929688	-0.03079210090637207	0.05047750091552734	1.0068699951171876	-0.05188090133666992	0.037500099182128904	1.0156599731445313	-0.0708948974609375	0.005775929927825928	1.0698699951171875
14	0.4666666666666667	0.010798500061035157	-0.035950298309326174	0.9950159912109375	-0.006030590057373047	-0.029717599868774414	1.01475	-0.024640199661254882	-0.03098789978027344	1.038489990234375	-0.041594200134277344	-0.010848999977111817	1.0558299560546875	0.011118300437927246	0.0007768970131874081	0.9446610107421874	-0.007388969898223877	-0.006878069877624512	0.9537620239257812	-0.02516119956970215	-0.014206100463867187	0.9668909912109375	-0.043781200408935544	-0.021236299514770508	0.9985059814453126	0.011353199958801269	0.03207730102539062	0.93910302734375	-0.008049790382385253	0.024251699447631836	0.949781005859375	-0.029460599899291992	0.014480500221252442	0.9645900268554688	-0.05214590072631836	0.001712360024452209	0.9948170166015625	0.012368900299072266	0.0467952995300293	0.9615460205078125	-0.007671370029449463	0.04166279983520508	0.9693330078125	-0.03032320022583008	0.0346879997253418	0.9798939819335938	-0.05504259872436523	0.021653600692749023	1.0025700073242187	0.0029208199977874753	0.06298049926757812	1.0003400268554687	-0.014153900146484375	0.05727859878540039	1.003239990234375	-0.03021470069885254	0.05059960174560547	1.0071900024414062	-0.05152349853515625	0.037743099212646486	1.0156099853515625	-0.07056300354003907	0.005837850093841553	1.06947998046875
15	0.5	0.010809100151062012	-0.03621039962768555	0.9948790283203125	-0.005993090152740479	-0.0298927001953125	1.0146799926757812	-0.024670700073242187	-0.031066600799560546	1.0384000244140625	-0.04125910186767578	-0.010788000106811524	1.05572998046875	0.010897899627685547	0.00047515198588371206	0.9439849853515625	-0.007594279766082764	-0.007058700084686279	0.9532940063476563	-0.025275699615478514	-0.0142121000289917	0.9665770263671875	-0.04365610122680664	-0.021020599365234375	0.9982949829101563	0.011659299850463867	0.032131099700927736	0.9389169921875	-0.0077962298393249516	0.024372499465942384	0.9496329956054688	-0.02925040054321289	0.014665200233459472	0.9644949951171875	-0.05197969818115234	0.001937719941139221	0.9948289794921875	0.012909600257873535	0.046700901031494144	0.9614940185546875	-0.007147469997406006	0.04168230056762695	0.9692670288085937	-0.029894399642944335	0.03483560180664062	0.9798560180664062	-0.05455160140991211	0.021870800018310547	1.002530029296875	0.003926990032196045	0.06263240051269531	1.0009299926757813	-0.013139800071716308	0.057152198791503905	1.0035800170898437	-0.029448400497436522	0.05060409927368164	1.0074299926757813	-0.050718700408935544	0.03789089965820312	1.0158699951171875	-0.07049009704589844	0.006030079841613769	1.069469970703125
16	0.5333333333333333	0.011086299896240234	-0.03635409927368164	0.9949940185546875	-0.005725419998168945	-0.030011199951171876	1.014739990234375	-0.024507400512695312	-0.03111429977416992	1.0384300537109374	-0.041115200042724606	-0.010762900352478027	1.055800048828125	0.01147700023651123	0.0005354269742965691	0.9441409912109375	-0.0070559802055358885	-0.006889910221099854	0.9533079833984375	-0.024802499771118165	-0.013943900108337402	0.9665120239257813	-0.04325550079345703	-0.02072319984436035	0.9983150024414063	0.01237559986114502	0.03221770095825195	0.939010009765625	-0.007129240036010742	0.02453190040588379	0.9496690063476563	-0.028609699249267578	0.014919500350952148	0.9644660034179687	-0.05137329864501953	0.0022679800987243652	0.9948300170898438	0.013607600212097167	0.04695199966430664	0.961531005859375	-0.00646249008178711	0.041917598724365235	0.9694140014648438	-0.029118499755859374	0.03508229827880859	0.9800369873046875	-0.05390110015869141	0.022146600723266602	1.0026099853515624	0.004823160171508789	0.06277619934082031	1.00127001953125	-0.012323200225830078	0.057278099060058596	1.004010009765625	-0.028595300674438478	0.050728401184082034	1.0077999877929686	-0.049965999603271485	0.03805229949951172	1.0158099975585937	-0.07013870239257812	0.006265590190887451	1.06927001953125
